<?xml version="1.0" encoding="UTF-8" standalone="no"?>
<svg
   xmlns:dc="http://purl.org/dc/elements/1.1/"
   xmlns:cc="http://creativecommons.org/ns#"
   xmlns:rdf="http://www.w3.org/1999/02/22-rdf-syntax-ns#"
   xmlns:svg="http://www.w3.org/2000/svg"
   xmlns="http://www.w3.org/2000/svg"
   id="svg4"
   version="1.1"
   viewBox="0 0 48 48"
   height="48"
   width="48">
  <metadata
     id="metadata10">
    <rdf:RDF>
      <cc:Work
         rdf:about="">
        <dc:format>image/svg+xml</dc:format>
        <dc:type
           rdf:resource="http://purl.org/dc/dcmitype/StillImage" />
        <dc:title></dc:title>
      </cc:Work>
    </rdf:RDF>
  </metadata>
  <defs
     id="defs8" />
  <path
     style="stroke-width:0.77773529"
     id="path2"
     d="m 27.802909,23.334353 -6.812961,-10.19611 c -0.29554,-0.451087 -0.79329,-0.661075 -1.291041,-0.661075 -0.49775,0 -0.995501,0.217765 -1.29104,0.661075 l -6.812962,10.19611 H 4.1442009 c -0.855509,0 -1.555471,0.699961 -1.555471,1.55547 0,0.14777 0.02333,0.287762 0.05444,0.419977 l 3.943118,14.419213 C 6.9518249,41.035608 8.1573149,42 9.588348,42 h 20.221118 c 1.431033,0 2.636523,-0.964392 2.994281,-2.278764 l 3.943118,-14.419213 c 0.03889,-0.124438 0.06222,-0.26443 0.06222,-0.4122 0,-0.855509 -0.699962,-1.55547 -1.555471,-1.55547 z m -12.770414,0 4.666412,-6.844071 4.666412,6.844071 z m 4.666412,12.443765 c -1.718795,0 -3.110941,-1.392147 -3.110941,-3.110942 0,-1.718795 1.392146,-3.110941 3.110941,-3.110941 1.718795,0 3.110941,1.392146 3.110941,3.110941 0,1.718795 -1.392146,3.110942 -3.110941,3.110942 z" />
  <path
     style="stroke-width:0.66286153"
     d="M 38.844101,15.84322 H 37.79015 l -0.364572,-0.364573 c 1.299207,-1.504696 2.081385,-3.460137 2.081385,-5.6011787 0,-4.7593468 -3.857854,-8.6172009 -8.6172,-8.6172009 -4.759348,0 -8.617202,3.8578541 -8.617202,8.6172009 0,4.7593457 3.857854,8.6171997 8.617202,8.6171997 2.141042,0 4.096484,-0.782178 5.601179,-2.074758 l 0.364574,0.364574 v 1.047322 l 6.628615,6.615357 1.975327,-1.975327 z m -7.954338,0 c -3.294423,0 -5.965754,-2.67133 -5.965754,-5.9657517 0,-3.2944228 2.671331,-5.9657533 5.965754,-5.9657533 3.294422,0 5.965753,2.6713305 5.965753,5.9657533 0,3.2944217 -2.671331,5.9657517 -5.965753,5.9657517 z"
     id="path4487" />
</svg>
